<svg viewBox="0 0 48 48" xmlns="http://www.w3.org/2000/svg" fill="#000000">
        <g id="SVGRepo_iconCarrier">
          <path style={svgStyle} d="M41.68,13H24.77c-2-.1-5.93-4.23-8.19-4.23H6.68A2.18,2.18,0,0,0,4.5,11h0v7.29h39V14.87A1.83,1.83,0,0,0,41.68,13Z"></path>
          <path style={svgStyle} d="M43.5,18.28H4.5V37A2.18,2.18,0,0,0,6.67,39.2H41.32A2.18,2.18,0,0,0,43.5,37h0Z"></path>
          <line style={svgStyle} x1="25.32" y1="33.82" x2="30.42" y2="33.82"></line>
          <line style={svgStyle} x1="25.32" y1="23.62" x2="30.42" y2="23.62"></line>
          <line style={svgStyle} x1="25.32" y1="28.72" x2="28.65" y2="28.72"></line>
          <line style={svgStyle} x1="25.32" y1="23.62" x2="25.32" y2="33.82"></line>
          <path style={svgStyle} d="M32.58,32.7a2.85,2.85,0,0,0,2.5,1.12h1.51a2.55,2.55,0,0,0,2.54-2.55h0a2.55,2.55,0,0,0-2.54-2.55H34.92a2.55,2.55,0,0,1-2.55-2.55h0a2.55,2.55,0,0,1,2.55-2.55h1.51a2.86,2.86,0,0,1,2.5,1.11"></path>
        </g>
      </svg>